<?xml version="1.0" encoding="UTF-8"?>
<svg version="1.1" xmlns="http://www.w3.org/2000/svg" width="420" height="594">

<defs>
    <!-- Define a shadow filter -->
    <filter id="flyShadow" x="-50%" y="-50%" width="200%" height="200%"> 
        <feDropShadow dx="0" dy="0" stdDeviation="60" flood-color="#fff" flood-opacity="1"/>
    </filter>
</defs>

<g filter="url(#flyShadow)">

<path d="M0 0 C0 1.32 0 2.64 0 4 C-2.64241276 6.04186441 -5.19824108 7.6436627 -8.25 9 C-10.56805143 10.32460082 -10.83650337 11.58474147 -12 14 C-13.62189426 16.78741134 -15.24497912 19.5733682 -16.90234375 22.33984375 C-22.1052939 31.26201302 -24.54116222 39.54637958 -25.5 49.8125 C-27.85095917 71.13579751 -27.85095917 71.13579751 -33.8125 79.0625 C-36.27647682 81.67064578 -36.27647682 81.67064578 -35.76171875 84.05859375 C-35.07359856 86.19305805 -35.07359856 86.19305805 -33 88 C-30.76920673 88.81182984 -30.76920673 88.81182984 -28.16015625 89.48046875 C-27.18449707 89.75375 -26.20883789 90.02703125 -25.20361328 90.30859375 C-24.1670459 90.59863281 -23.13047852 90.88867188 -22.0625 91.1875 C-13.3098632 93.74623184 -6.20473176 96.30411259 1 102 C1.87269531 102.63550781 2.74539063 103.27101563 3.64453125 103.92578125 C8.14888044 107.26771775 8.14888044 107.26771775 10 109 C10 109.66 10 110.32 10 111 C10.59296875 111.27585937 11.1859375 111.55171875 11.796875 111.8359375 C13.8850959 112.93928826 15.44582688 114.11590192 17.25 115.625 C21.25560108 118.717837 25.52247677 120.82539317 30.0625 123 C35.78075927 125.74355618 40.4691734 128.4691734 45 133 C44.34 134.32 43.68 135.64 43 137 C39.82041495 135.94013832 37.63663712 134.72562395 34.9375 132.6875 C31.8642338 130.38755024 28.84072515 129.0924574 25.25 127.75 C17.76602849 124.7564114 12.3918911 119.96988947 6.46533203 114.61279297 C-3.69814194 105.45659465 -13.40375453 99.73481152 -27 97 C-20.299555 110.80079582 -20.299555 110.80079582 -10 122 C-4.11211731 127.32713196 -0.63504507 133.84093593 2.99609375 140.8203125 C8.87980785 151.97065195 15.73544508 159.5264249 25.375 167.75 C28.9905476 170.8660802 31.61292763 173.84187393 34 178 C33.8125 180.9375 33.8125 180.9375 33 183 C30.51368449 182.63264289 29.29820076 182.33662439 27.60546875 180.42578125 C27.13753906 179.72839844 26.66960937 179.03101563 26.1875 178.3125 C22.17342057 172.85230026 17.34126575 168.48249373 12.33081055 163.9621582 C5.39359292 157.6703872 1.25190606 151.06046531 -3.125 142.8125 C-4.18689902 140.81730124 -5.25185767 138.82372698 -6.3203125 136.83203125 C-6.78711426 135.95264893 -7.25391602 135.0732666 -7.73486328 134.16723633 C-8.94191046 131.88863051 -8.94191046 131.88863051 -11 130 C-10.57702637 130.91942383 -10.57702637 130.91942383 -10.14550781 131.85742188 C-4.57052818 144.06667292 0.4197985 155.79066654 3 169 C3.17289551 169.74934814 3.34579102 170.49869629 3.52392578 171.27075195 C4.4269746 176.44776875 4.26515114 181.71984422 4.29516602 186.96264648 C4.30661941 188.35012057 4.32696485 189.73755293 4.35668945 191.12475586 C4.579741 201.56331916 3.83475651 211.18976286 -2.0625 220.125 C-5.43234513 223.38614045 -7.58562302 224.31009341 -12.1875 224.375 C-22.79294964 224.11055965 -28.62507665 218.08428598 -36 211 C-36.63035156 210.42121094 -37.26070312 209.84242188 -37.91015625 209.24609375 C-43.88867374 203.59442004 -48.45359329 196.81961007 -53 190 C-56.54518884 191.39759905 -56.54518884 191.39759905 -60 193 C-66.10212353 193.61021235 -69.87064616 191.98435133 -75 189 C-75.25652344 189.72832031 -75.51304687 190.45664062 -75.77734375 191.20703125 C-81.45570586 204.17836962 -96.79424392 219.74760163 -110 225.25 C-114.82725201 226.456813 -117.66345006 226.72173697 -122.125 224.3125 C-129.2481909 218.58297688 -131.43850242 211.7554257 -133 203 C-134.42971943 183.18310264 -132.14028034 164.4346571 -123.99804688 146.23925781 C-122.77250641 143.48958629 -121.58195139 140.72560097 -120.390625 137.9609375 C-117.94658878 132.29867531 -115.47999749 126.6465937 -113 121 C-113.33 121 -113.66 121 -114 121 C-120.33270035 127.39918539 -124.2488101 133.85211863 -127.3125 142.25 C-131.84074426 154.22043422 -139.22882163 162.94948474 -148 172 C-148.54785156 172.61488281 -149.09570312 173.22976563 -149.66015625 173.86328125 C-150.32337891 174.42595703 -150.32337891 174.42595703 -151 175 C-153.6875 174.6875 -153.6875 174.6875 -156 174 C-155.29469435 169.79494987 -153.25478742 168.5209017 -150.0234375 165.86328125 C-140.47076123 157.06670484 -134.79881419 143.99575089 -130 132.125 C-125.88692646 122.78194071 -118.43756948 116.35160792 -110.63671875 110.12890625 C-107.04213098 107.22660946 -104.80135201 104.99594734 -102.8125 100.8125 C-102.46832031 100.09707031 -102.12414062 99.38164062 -101.76953125 98.64453125 C-101.51558594 98.10183594 -101.26164062 97.55914062 -101 97 C-113.68277979 99.25017061 -123.11836666 105.28277428 -132.2890625 114.234375 C-137.78795393 119.56774796 -143.22006331 122.89142127 -150.08935547 126.10131836 C-155.18130811 128.49699663 -159.57369361 131.32373772 -163.984375 134.84765625 C-166 136 -166 136 -168.265625 135.68359375 C-168.83796875 135.45800781 -169.4103125 135.23242188 -170 135 C-169.71047583 131.79884598 -169.44233211 130.38993938 -166.98828125 128.2265625 C-166.10527344 127.69804687 -165.22226563 127.16953125 -164.3125 126.625 C-163.31734375 126.02429688 -162.3221875 125.42359375 -161.296875 124.8046875 C-157.94220266 122.96836212 -154.53039589 121.36064498 -151.0625 119.75 C-145.25193999 116.92700461 -141.08225213 113.65957407 -136.46020508 109.19946289 C-126.4321303 99.56185596 -116.01649708 94.27901813 -103 90 C-102.06285156 89.68289063 -101.12570313 89.36578125 -100.16015625 89.0390625 C-98.70043248 88.54843987 -97.23853568 88.0641763 -95.7734375 87.58984375 C-93.47416495 86.82510772 -91.23405713 85.93686267 -89 85 C-88.12314236 76.93290971 -91.5895229 70.94253929 -96.53515625 64.73828125 C-97.47956865 63.57373148 -98.42624601 62.41101542 -99.375 61.25 C-106.90548982 51.98995929 -111.68678037 42.47954446 -114.2734375 30.74609375 C-116.69671847 21.58713394 -123.14679082 14.55978077 -129.9375 8.25 C-132 6 -132 6 -132 2 C-129.8125 1.6875 -129.8125 1.6875 -127 2 C-125.07950409 3.60906414 -123.62690333 5.12246562 -122 7 C-121.37867188 7.64324219 -120.75734375 8.28648437 -120.1171875 8.94921875 C-112.15305068 17.38272485 -108.09380349 25.57271783 -105.75 36.87890625 C-103.57309006 45.93802626 -98.11154608 52.79511571 -92.40234375 59.921875 C-86 68.12520325 -86 68.12520325 -86 71 C-85.34 71 -84.68 71 -84 71 C-82.92474806 68.34771188 -81.90543849 65.71631546 -81 63 C-82.2684375 62.2265625 -82.2684375 62.2265625 -83.5625 61.4375 C-84.366875 60.633125 -85.17125 59.82875 -86 59 C-85.92524733 54.73909778 -85.36999926 52.55499889 -83 49 C-83.0885035 46.9025035 -83.0885035 46.9025035 -83.5625 44.6875 C-84.16898783 40.25436279 -83.65281658 37.75053378 -81 34 C-78.05183528 31.83801254 -75.59144643 31.8004752 -72 32 C-71.5359375 30.7934375 -71.5359375 30.7934375 -71.0625 29.5625 C-70 27 -70 27 -69 26 C-58.96231618 24.92233456 -58.96231618 24.92233456 -55.09375 27.046875 C-53.75 28.375 -53.75 28.375 -52 31 C-52 31.66 -52 32.32 -52 33 C-51.0925 32.9175 -50.185 32.835 -49.25 32.75 C-46 33 -46 33 -43.6875 34.875 C-40.67983092 38.66243514 -40.83435191 41.19620547 -41 46 C-41.20625 46.721875 -41.4125 47.44375 -41.625 48.1875 C-42.21062957 50.05904868 -42.21062957 50.05904868 -41.0625 51.8125 C-39.48493152 55.06043511 -39.55558422 57.44467376 -40 61 C-42.5 63.4375 -42.5 63.4375 -45 65 C-43.02 68.63 -41.04 72.26 -39 76 C-38.071875 74.0509375 -38.071875 74.0509375 -37.125 72.0625 C-36.77695313 71.33160156 -36.42890625 70.60070312 -36.0703125 69.84765625 C-33.62045594 63.32960721 -32.78140199 56.63376889 -32.06347656 49.74121094 C-30.06727198 31.09131209 -23.54922634 14.55407927 -9 2 C-5.64781778 -0.51413666 -3.99553293 -1.62780971 0 0 Z " fill="#959595" transform="translate(280,182)"/>
<path d="M0 0 C0 1.32 0 2.64 0 4 C-2.64241276 6.04186441 -5.19824108 7.6436627 -8.25 9 C-10.56805143 10.32460082 -10.83650337 11.58474147 -12 14 C-13.62189426 16.78741134 -15.24497912 19.5733682 -16.90234375 22.33984375 C-22.1052939 31.26201302 -24.54116222 39.54637958 -25.5 49.8125 C-28.05791605 73.012905 -28.05791605 73.012905 -36 82 C-36.66 82 -37.32 82 -38 82 C-38 82.99 -38 83.98 -38 85 C-38.89589844 85.12761719 -39.79179687 85.25523437 -40.71484375 85.38671875 C-45.70737092 87.8384592 -46.60954425 91.80120847 -48.5625 96.8125 C-51.55905335 104.32264534 -53.99256903 108.83623871 -60.375 113.875 C-64.05645673 115.45276717 -66.17435349 115.09304186 -70 114 C-72.58297781 111.81008403 -74.48415844 110.03168312 -76 107 C-79.43811794 107.28650983 -80.74171193 107.73433227 -83.1875 110.25 C-86.35278106 115.0524954 -87.25680194 118.87327067 -87.4140625 124.61328125 C-87.45273438 125.86044922 -87.49140625 127.10761719 -87.53125 128.39257812 C-87.5621875 129.68615234 -87.593125 130.97972656 -87.625 132.3125 C-87.66367188 133.62541016 -87.70234375 134.93832031 -87.7421875 136.29101562 C-87.83633117 139.52720437 -87.92196352 142.76338935 -88 146 C-88.33 146 -88.66 146 -89 146 C-90.21298921 141.23537838 -90.18370055 136.56979127 -90.1875 131.6875 C-90.19974609 130.87087891 -90.21199219 130.05425781 -90.22460938 129.21289062 C-90.24380192 121.18401079 -89.14712557 114.47067214 -84 108 C-81.25 105.625 -81.25 105.625 -79 104 C-79.66 103.67 -80.32 103.34 -81 103 C-82.87037269 103.67273545 -82.87037269 103.67273545 -84.9375 104.75 C-88.44163542 106.40926156 -91.71964066 107.46710318 -95.5 108.3125 C-100.76985273 109.63181615 -104.16330659 112.02871082 -108.22265625 115.57421875 C-110 117 -110 117 -112 117 C-112.26039063 117.58136719 -112.52078125 118.16273438 -112.7890625 118.76171875 C-114.07763664 121.14350256 -115.5311492 122.83579532 -117.375 124.8125 C-122.20461576 130.26078555 -124.83650553 135.46305076 -127.3125 142.25 C-131.84074426 154.22043422 -139.22882163 162.94948474 -148 172 C-148.54785156 172.61488281 -149.09570312 173.22976563 -149.66015625 173.86328125 C-150.32337891 174.42595703 -150.32337891 174.42595703 -151 175 C-153.6875 174.6875 -153.6875 174.6875 -156 174 C-155.29469435 169.79494987 -153.25478742 168.5209017 -150.0234375 165.86328125 C-140.47076123 157.06670484 -134.79881419 143.99575089 -130 132.125 C-125.88692646 122.78194071 -118.43756948 116.35160792 -110.63671875 110.12890625 C-107.04213098 107.22660946 -104.80135201 104.99594734 -102.8125 100.8125 C-102.46832031 100.09707031 -102.12414062 99.38164062 -101.76953125 98.64453125 C-101.51558594 98.10183594 -101.26164062 97.55914062 -101 97 C-113.68277979 99.25017061 -123.11836666 105.28277428 -132.2890625 114.234375 C-137.78795393 119.56774796 -143.22006331 122.89142127 -150.08935547 126.10131836 C-155.18130811 128.49699663 -159.57369361 131.32373772 -163.984375 134.84765625 C-166 136 -166 136 -168.265625 135.68359375 C-168.83796875 135.45800781 -169.4103125 135.23242188 -170 135 C-169.71047583 131.79884598 -169.44233211 130.38993938 -166.98828125 128.2265625 C-166.10527344 127.69804687 -165.22226563 127.16953125 -164.3125 126.625 C-163.31734375 126.02429688 -162.3221875 125.42359375 -161.296875 124.8046875 C-157.94220266 122.96836212 -154.53039589 121.36064498 -151.0625 119.75 C-145.25193999 116.92700461 -141.08225213 113.65957407 -136.46020508 109.19946289 C-126.4321303 99.56185596 -116.01649708 94.27901813 -103 90 C-102.06285156 89.68289063 -101.12570313 89.36578125 -100.16015625 89.0390625 C-98.70043248 88.54843987 -97.23853568 88.0641763 -95.7734375 87.58984375 C-93.47416495 86.82510772 -91.23405713 85.93686267 -89 85 C-88.12314236 76.93290971 -91.5895229 70.94253929 -96.53515625 64.73828125 C-97.47956865 63.57373148 -98.42624601 62.41101542 -99.375 61.25 C-106.90548982 51.98995929 -111.68678037 42.47954446 -114.2734375 30.74609375 C-116.69671847 21.58713394 -123.14679082 14.55978077 -129.9375 8.25 C-132 6 -132 6 -132 2 C-129.8125 1.6875 -129.8125 1.6875 -127 2 C-125.07950409 3.60906414 -123.62690333 5.12246562 -122 7 C-121.37867188 7.64324219 -120.75734375 8.28648437 -120.1171875 8.94921875 C-112.15305068 17.38272485 -108.09380349 25.57271783 -105.75 36.87890625 C-103.57309006 45.93802626 -98.11154608 52.79511571 -92.40234375 59.921875 C-86 68.12520325 -86 68.12520325 -86 71 C-85.34 71 -84.68 71 -84 71 C-82.92474806 68.34771188 -81.90543849 65.71631546 -81 63 C-82.2684375 62.2265625 -82.2684375 62.2265625 -83.5625 61.4375 C-84.366875 60.633125 -85.17125 59.82875 -86 59 C-85.92524733 54.73909778 -85.36999926 52.55499889 -83 49 C-83.0885035 46.9025035 -83.0885035 46.9025035 -83.5625 44.6875 C-84.16898783 40.25436279 -83.65281658 37.75053378 -81 34 C-78.05183528 31.83801254 -75.59144643 31.8004752 -72 32 C-71.5359375 30.7934375 -71.5359375 30.7934375 -71.0625 29.5625 C-70 27 -70 27 -69 26 C-58.96231618 24.92233456 -58.96231618 24.92233456 -55.09375 27.046875 C-53.75 28.375 -53.75 28.375 -52 31 C-52 31.66 -52 32.32 -52 33 C-51.0925 32.9175 -50.185 32.835 -49.25 32.75 C-46 33 -46 33 -43.6875 34.875 C-40.67983092 38.66243514 -40.83435191 41.19620547 -41 46 C-41.20625 46.721875 -41.4125 47.44375 -41.625 48.1875 C-42.21062957 50.05904868 -42.21062957 50.05904868 -41.0625 51.8125 C-39.48493152 55.06043511 -39.55558422 57.44467376 -40 61 C-42.5 63.4375 -42.5 63.4375 -45 65 C-43.02 68.63 -41.04 72.26 -39 76 C-38.071875 74.0509375 -38.071875 74.0509375 -37.125 72.0625 C-36.77695313 71.33160156 -36.42890625 70.60070312 -36.0703125 69.84765625 C-33.62045594 63.32960721 -32.78140199 56.63376889 -32.06347656 49.74121094 C-30.06727198 31.09131209 -23.54922634 14.55407927 -9 2 C-5.64781778 -0.51413666 -3.99553293 -1.62780971 0 0 Z " fill="#565656" transform="translate(280,182)"/>
<path d="M0 0 C0.99 0.66 1.98 1.32 3 2 C2.52949219 2.36351562 2.05898437 2.72703125 1.57421875 3.1015625 C-4.42935663 7.94916995 -6.9906119 12.27326809 -8 20 C-9.29130093 44.04905144 -4.52567169 66.35858245 8 87 C7.34 87 6.68 87 6 87 C5.74347656 87.72832031 5.48695313 88.45664062 5.22265625 89.20703125 C-0.45570586 102.17836962 -15.79424392 117.74760163 -29 123.25 C-33.82725201 124.456813 -36.66345006 124.72173697 -41.125 122.3125 C-48.2481909 116.58297688 -50.43850242 109.7554257 -52 101 C-53.43025592 81.17566656 -51.13571274 62.42483567 -42.99365234 44.22167969 C-41.32007961 40.47978489 -39.69352941 36.71736413 -38.05908203 32.95825195 C-37.15810306 30.89183792 -36.25168963 28.82778324 -35.33935547 26.76635742 C-34.71311279 25.34480347 -34.71311279 25.34480347 -34.07421875 23.89453125 C-33.69869873 23.04737549 -33.32317871 22.20021973 -32.9362793 21.32739258 C-31.95574334 19.06046049 -31.95574334 19.06046049 -31.48950195 16.81689453 C-30.35643623 12.61127103 -25.39303145 10.09373862 -21.85546875 7.94873047 C-17.07966744 5.50678785 -11.79806049 4.31948498 -6.625 3.0078125 C-2.94279668 2.18687943 -2.94279668 2.18687943 0 0 Z " fill="#E1E1E1" transform="translate(199,284)"/>
<path d="M0 0 C9.99928739 0.76917595 17.662616 7.77941722 25 14 C25.91910156 14.74894531 26.83820313 15.49789063 27.78515625 16.26953125 C28.68105469 17.02621094 29.57695312 17.78289062 30.5 18.5625 C31.3146875 19.24441406 32.129375 19.92632812 32.96875 20.62890625 C35.5254153 23.61332133 36.04122713 26.20940853 37 30 C38.06153872 32.35303294 39.16822256 34.68607312 40.3125 37 C47.67386157 52.33440669 51.37474415 67.33700741 51.37060547 84.4152832 C51.37498806 86.43200693 51.41147516 88.44654986 51.44921875 90.46289062 C51.47781272 100.15148022 50.36839793 108.89636677 44.9375 117.125 C41.56765487 120.38614045 39.41437698 121.31009341 34.8125 121.375 C24.20705036 121.11055965 18.37492335 115.08428598 11 108 C10.36964844 107.42121094 9.73929688 106.84242188 9.08984375 106.24609375 C4.74525938 102.13902652 1.32957339 97.53165422 -2.10546875 92.6484375 C-3.98463928 90.02147334 -5.96124548 87.50436808 -8 85 C-7.01 85 -6.02 85 -5 85 C-4.90203125 84.46890625 -4.8040625 83.9378125 -4.703125 83.390625 C-3.78302071 80.26227043 -2.28802362 77.62543546 -0.75 74.75 C8.80707793 56.1613361 14.21541855 33.48687154 9.05859375 12.93359375 C7.34437136 8.18311031 4.57887725 4.28943863 0 2 C0 1.34 0 0.68 0 0 Z " fill="#E0E0E0" transform="translate(233,285)"/>
<path d="M0 0 C2.39823944 1.27906103 3.47475729 2.68959953 4.875 5 C4.875 5.66 4.875 6.32 4.875 7 C5.50148437 7.09796875 6.12796875 7.1959375 6.7734375 7.296875 C7.59070313 7.44640625 8.40796875 7.5959375 9.25 7.75 C10.46816406 7.95882813 10.46816406 7.95882813 11.7109375 8.171875 C14.51734439 9.24580688 14.65016332 10.33795576 15.875 13 C17.22345938 14.01540616 18.60129852 14.99249918 20 15.9375 C22.67708255 18.2203213 23.74308988 19.42657893 24.5390625 22.88671875 C24.75718365 31.10592038 22.6688735 38.34516415 19.875 46 C19.4934375 47.07636719 19.111875 48.15273438 18.71875 49.26171875 C17.79105756 51.84931802 16.84412581 54.42769267 15.875 57 C15.215 57 14.555 57 13.875 57 C13.96394531 57.64582031 14.05289063 58.29164063 14.14453125 58.95703125 C13.7473765 63.44085084 11.69991807 66.7804986 9.5625 70.6875 C9.15837891 71.45900391 8.75425781 72.23050781 8.33789062 73.02539062 C5.27040816 78.73639456 5.27040816 78.73639456 1.875 81 C-3.48009708 73.17898193 -6.54234781 65.04894601 -9.125 56 C-9.3933667 55.14921875 -9.6617334 54.2984375 -9.93823242 53.421875 C-12.23309779 45.50086643 -12.47308676 38.01953533 -12.14379883 29.86230469 C-12.06206991 27.73882529 -12.01881026 25.61681361 -11.97851562 23.4921875 C-11.72883094 14.6243646 -11.04725428 8.02031064 -4.625 1.4375 C-2.125 0 -2.125 0 0 0 Z " fill="#A2A2A2" transform="translate(203.125,288)"/>
<path d="M0 0 C6.75016888 0.03214366 6.75016888 0.03214366 9.5 2.75 C11.25 5.375 11.25 5.375 11.25 7.375 C12.61125 7.25125 12.61125 7.25125 14 7.125 C17.25 7.375 17.25 7.375 19.5625 9.25 C22.57016908 13.03743514 22.41564809 15.57120547 22.25 20.375 C22.04375 21.096875 21.8375 21.81875 21.625 22.5625 C21.03937043 24.43404868 21.03937043 24.43404868 22.1875 26.1875 C23.71131285 29.32476175 23.50441849 31.94035044 23.25 35.375 C18.15052517 40.47447483 8.97856389 39.56110582 2.1875 39.5625 C-3.85294351 39.52393074 -9.7663051 39.26147332 -15.75 38.375 C-15.75 37.715 -15.75 37.055 -15.75 36.375 C-16.53375 36.25125 -17.3175 36.1275 -18.125 36 C-20.75 35.375 -20.75 35.375 -22.75 33.375 C-22.44903201 29.23669011 -22.07101984 26.85652976 -19.75 23.375 C-19.8385035 21.2775035 -19.8385035 21.2775035 -20.3125 19.0625 C-20.91898783 14.62936279 -20.40281658 12.12553378 -17.75 8.375 C-14.80183528 6.21301254 -12.34144643 6.1754752 -8.75 6.375 C-8.440625 5.570625 -8.13125 4.76625 -7.8125 3.9375 C-6.0165347 -0.39394572 -4.56299638 0.14468037 0 0 Z " fill="#505050" transform="translate(216.75,207.625)"/>
<path d="M0 0 C0.0825 0.61875 0.165 1.2375 0.25 1.875 C0.78648121 4.15723303 0.78648121 4.15723303 2.875 5 C3.57625 5.33 4.2775 5.66 5 6 C7.99950398 9.29545504 9.2905519 13.09713917 10.6875 17.25 C11.02491211 18.22453125 11.02491211 18.22453125 11.36914062 19.21875 C11.91916227 20.81030199 12.46046788 22.40486156 13 24 C12.01 24.66 11.02 25.32 10 26 C5.59736631 28.97177774 3.33845754 31.89261765 2 37 C1.50079943 41.8085734 1.3978626 46.60597696 1.3125 51.4375 C1.27833984 52.74138672 1.24417969 54.04527344 1.20898438 55.38867188 C1.12683847 58.59236198 1.0575759 61.79578979 1 65 C0.67 65 0.34 65 0 65 C-1.21298921 60.23537838 -1.18370055 55.56979127 -1.1875 50.6875 C-1.19974609 49.87087891 -1.21199219 49.05425781 -1.22460938 48.21289062 C-1.24380192 40.18401079 -0.14712557 33.47067214 5 27 C7.75 24.625 7.75 24.625 10 23 C9.34 22.67 8.68 22.34 8 22 C6.12962731 22.67273545 6.12962731 22.67273545 4.0625 23.75 C0.55836458 25.40926156 -2.71964066 26.46710318 -6.5 27.3125 C-11.76985273 28.63181615 -15.16330659 31.02871082 -19.22265625 34.57421875 C-21 36 -21 36 -23 36 C-23.26039063 36.58136719 -23.52078125 37.16273438 -23.7890625 37.76171875 C-25.07763664 40.14350256 -26.5311492 41.83579532 -28.375 43.8125 C-33.20461576 49.26078555 -35.83650553 54.46305076 -38.3125 61.25 C-42.84074426 73.22043422 -50.22882163 81.94948474 -59 91 C-59.82177734 91.92232422 -59.82177734 91.92232422 -60.66015625 92.86328125 C-61.10230469 93.23839844 -61.54445312 93.61351562 -62 94 C-64.6875 93.6875 -64.6875 93.6875 -67 93 C-66.29469435 88.79494987 -64.25478742 87.5209017 -61.0234375 84.86328125 C-51.47076123 76.06670484 -45.79881419 62.99575089 -41 51.125 C-36.88692646 41.78194071 -29.43756948 35.35160792 -21.63671875 29.12890625 C-18.04213098 26.22660946 -15.80135201 23.99594734 -13.8125 19.8125 C-13.46832031 19.09707031 -13.12414062 18.38164062 -12.76953125 17.64453125 C-12.51558594 17.10183594 -12.26164062 16.55914062 -12 16 C-24.68277979 18.25017061 -34.11836666 24.28277428 -43.2890625 33.234375 C-48.78795393 38.56774796 -54.22006331 41.89142127 -61.08935547 45.10131836 C-66.18130811 47.49699663 -70.57369361 50.32373772 -74.984375 53.84765625 C-77 55 -77 55 -79.265625 54.68359375 C-79.83796875 54.45800781 -80.4103125 54.23242188 -81 54 C-80.71047583 50.79884598 -80.44233211 49.38993938 -77.98828125 47.2265625 C-77.10527344 46.69804687 -76.22226563 46.16953125 -75.3125 45.625 C-74.31734375 45.02429688 -73.3221875 44.42359375 -72.296875 43.8046875 C-68.94220266 41.96836212 -65.53039589 40.36064498 -62.0625 38.75 C-56.25193999 35.92700461 -52.08225213 32.65957407 -47.46020508 28.19946289 C-37.4321303 18.56185596 -27.01649708 13.27901813 -14 9 C-13.06285156 8.68289063 -12.12570313 8.36578125 -11.16015625 8.0390625 C-9.70043248 7.54843987 -8.23853568 7.0641763 -6.7734375 6.58984375 C-4.47416495 5.82510772 -2.23405713 4.93686267 0 4 C0 2.68 0 1.36 0 0 Z " fill="#909090" transform="translate(191,263)"/>
<path d="M0 0 C5.12063041 2.10849488 8.96471096 4.7532628 12.1875 9.3125 C14.33503988 18.21950967 11.23058062 26.97487032 8.1875 35.3125 C7.8059375 36.38886719 7.424375 37.46523438 7.03125 38.57421875 C6.10355756 41.16181802 5.15662581 43.74019267 4.1875 46.3125 C3.5275 46.3125 2.8675 46.3125 2.1875 46.3125 C1.5275 47.6325 0.8675 48.9525 0.1875 50.3125 C-6.80349496 38.54667562 -14.06738798 24.41807705 -11.8125 10.3125 C-9.84290636 5.27909403 -5.5505314 0.61672571 0 0 Z " fill="#B9B9B9" transform="translate(214.8125,298.6875)"/>
<path d="M0 0 C0 1.32 0 2.64 0 4 C-2.64241276 6.04186441 -5.19824108 7.6436627 -8.25 9 C-10.56805143 10.32460082 -10.83650337 11.58474147 -12 14 C-13.62189426 16.78741134 -15.24497912 19.5733682 -16.90234375 22.33984375 C-22.1052939 31.26201302 -24.54116222 39.54637958 -25.5 49.8125 C-28.05791605 73.012905 -28.05791605 73.012905 -36 82 C-36.66 82 -37.32 82 -38 82 C-38 82.99 -38 83.98 -38 85 C-41.96 85.99 -41.96 85.99 -46 87 C-46 85 -46 85 -44 83 C-43.525625 82.13375 -43.05125 81.2675 -42.5625 80.375 C-41.7890625 79.199375 -41.7890625 79.199375 -41 78 C-40.01 78 -39.02 78 -38 78 C-37.896875 77.195625 -37.79375 76.39125 -37.6875 75.5625 C-37.15704239 72.81376511 -36.54482438 70.70411493 -35.5703125 68.1328125 C-33.48955422 62.00028099 -32.9460296 55.71610022 -32.1875 49.3125 C-30.82400462 38.946585 -29.26563562 30.15488208 -24 21 C-23.45214844 20.01386719 -22.90429688 19.02773437 -22.33984375 18.01171875 C-18.43928631 11.44563231 -9.16008939 -3.73188827 0 0 Z " fill="#444444" transform="translate(280,182)"/>
<path d="M0 0 C2.1875 -0.3125 2.1875 -0.3125 5 0 C6.92049591 1.60906414 8.37309667 3.12246562 10 5 C10.93199219 5.96486328 10.93199219 5.96486328 11.8828125 6.94921875 C19.84694932 15.38272485 23.90619651 23.57271783 26.25 34.87890625 C28.42690994 43.93802626 33.88845392 50.79511571 39.59765625 57.921875 C46 66.12520325 46 66.12520325 46 71 C46.66 71 47.32 71 48 71 C47.34 73.31 46.68 75.62 46 78 C45.67 77.34 45.34 76.68 45 76 C44.34 76 43.68 76 43 76 C42.76667969 75.44054687 42.53335938 74.88109375 42.29296875 74.3046875 C39.71005144 68.62774558 36.56320814 64.02730174 32.625 59.25 C25.09112186 49.99463387 20.31255032 40.4765084 17.7265625 28.74609375 C15.30328153 19.58713394 8.85320918 12.55978077 2.0625 6.25 C0 4 0 4 0 0 Z " fill="#474747" transform="translate(148,184)"/>
<path d="M0 0 C16.17798804 0.71584018 30.23979551 7.9947716 42 19 C42 19.66 42 20.32 42 21 C42.59296875 21.27585937 43.1859375 21.55171875 43.796875 21.8359375 C45.8850959 22.93928826 47.44582688 24.11590192 49.25 25.625 C53.25560108 28.717837 57.52247677 30.82539317 62.0625 33 C67.78075927 35.74355618 72.4691734 38.4691734 77 43 C76.34 44.32 75.68 45.64 75 47 C71.82041495 45.94013832 69.63663712 44.72562395 66.9375 42.6875 C63.8642338 40.38755024 60.84072515 39.0924574 57.25 37.75 C49.76602849 34.7564114 44.3918911 29.96988947 38.46533203 24.61279297 C29.78170567 16.7897784 21.57133458 11.94537043 10.5859375 7.671875 C9.50570313 7.24390625 8.42546875 6.8159375 7.3125 6.375 C6.33925781 6.01148438 5.36601562 5.64796875 4.36328125 5.2734375 C1.68745211 3.83158576 1.0153238 2.81440633 0 0 Z " fill="#454545" transform="translate(248,272)"/>
<path d="M0 0 C-1.0625 2.4375 -1.0625 2.4375 -3 5 C-6.6875 5.8125 -6.6875 5.8125 -10 6 C-10 6.66 -10 7.32 -10 8 C-10.79921875 8.25652344 -11.5984375 8.51304687 -12.421875 8.77734375 C-23.64174787 12.68849662 -31.7334388 18.80016451 -40.25 27.0625 C-45.13432564 31.62874365 -50.14371876 34.36806585 -56.140625 37.15234375 C-61.2235315 39.52306597 -65.58789886 42.33508702 -69.984375 45.84765625 C-72 47 -72 47 -74.265625 46.68359375 C-74.83796875 46.45800781 -75.4103125 46.23242188 -76 46 C-75.71047583 42.79884598 -75.44233211 41.38993938 -72.98828125 39.2265625 C-72.10527344 38.69804687 -71.22226563 38.16953125 -70.3125 37.625 C-69.31734375 37.02429688 -68.3221875 36.42359375 -67.296875 35.8046875 C-63.94220266 33.96836212 -60.53039589 32.36064498 -57.0625 30.75 C-51.25193999 27.92700461 -47.08225213 24.65957407 -42.46020508 20.19946289 C-32.44841351 10.57750514 -22.01038488 5.26569996 -9 1 C-5.8035914 -0.06546953 -3.34252724 -0.07427838 0 0 Z " fill="#474747" transform="translate(186,271)"/>
<path d="M0 0 C10.42867546 4.41213192 15.66463689 14.2101055 20.44677734 23.88134766 C26.37410772 35.79432532 33.40627648 43.21700716 43.4375 51.8125 C47.03274113 54.90380566 49.62837432 57.86878107 52 62 C51.8125 64.9375 51.8125 64.9375 51 67 C48.51368449 66.63264289 47.29820076 66.33662439 45.60546875 64.42578125 C45.13753906 63.72839844 44.66960937 63.03101563 44.1875 62.3125 C40.17342057 56.85230026 35.34126575 52.48249373 30.33081055 47.9621582 C23.54959647 41.81187601 19.49752315 35.44684639 15.25 27.375 C11.41599292 20.18351914 7.58274988 13.45252729 2.42578125 7.12109375 C0.82211094 4.73535956 0.37284568 2.82865591 0 0 Z " fill="#484848" transform="translate(262,298)"/>
<path d="M0 0 C0 3.59857954 -0.95830515 5.09451118 -3 8 C-3.66 8 -4.32 8 -5 8 C-5.26039063 8.58136719 -5.52078125 9.16273438 -5.7890625 9.76171875 C-7.07763664 12.14350256 -8.5311492 13.83579532 -10.375 15.8125 C-15.20461576 21.26078555 -17.83650553 26.46305076 -20.3125 33.25 C-24.84074426 45.22043422 -32.22882163 53.94948474 -41 63 C-41.82177734 63.92232422 -41.82177734 63.92232422 -42.66015625 64.86328125 C-43.10230469 65.23839844 -43.54445312 65.61351562 -44 66 C-46.6875 65.6875 -46.6875 65.6875 -49 65 C-48.29469435 60.79494987 -46.25478742 59.5209017 -43.0234375 56.86328125 C-33.47076123 48.06670484 -27.79881419 34.99575089 -23 23.125 C-19.26364001 14.51655826 -11.76507286 5.63188109 -3.125 1.6875 C-2.42375 1.460625 -1.7225 1.23375 -1 1 C-0.67 0.67 -0.34 0.34 0 0 Z " fill="#454545" transform="translate(173,291)"/>
<path d="M0 0 C0.66 0 1.32 0 2 0 C3.56464388 2.55078916 5.1010896 5.11253963 6.625 7.6875 C7.07101563 8.40873047 7.51703125 9.12996094 7.9765625 9.87304688 C11.1481315 15.29940321 11.1481315 15.29940321 10.37890625 18.9375 C8.71279947 21.4295804 7.87535953 22.14516338 5 23 C0.67728976 23.48030114 -1.53279983 23.23784736 -5.4375 21.25 C-6.283125 20.5075 -7.12875 19.765 -8 19 C-8 15.25582421 -7.92400327 14.36225593 -6.25 11.328125 C-5.8890625 10.66425781 -5.528125 10.00039063 -5.15625 9.31640625 C-4.7746875 8.63449219 -4.393125 7.95257813 -4 7.25 C-3.6184375 6.55261719 -3.236875 5.85523438 -2.84375 5.13671875 C-1.90328704 3.42037385 -0.95262622 1.70962384 0 0 Z " fill="#4F4F4F" transform="translate(215,352)"/>
<path d="M0 0 C4.29 0.99 8.58 1.98 13 3 C12.67 3.66 12.34 4.32 12 5 C12.70866565 6.88084148 12.70866565 6.88084148 13.87109375 8.9140625 C14.28037109 9.67460937 14.68964844 10.43515625 15.11132812 11.21875 C15.54896484 12.0128125 15.98660156 12.806875 16.4375 13.625 C17.0881543 14.82769531 17.0881543 14.82769531 17.75195312 16.0546875 C18.82756988 18.04044151 19.91047213 20.0218546 21 22 C20.01 22.33 19.02 22.66 18 23 C17.4740625 22.26136719 16.948125 21.52273438 16.40625 20.76171875 C13.69912476 17.65467728 11.03757584 15.90989301 7.5 13.8125 C6.3759375 13.13832031 5.251875 12.46414063 4.09375 11.76953125 C1.75408993 10.43131659 -0.5699484 9.16142172 -3 8 C-1.125 2.25 -1.125 2.25 0 0 Z " fill="#DFDFDF" transform="translate(241,274)"/>
<path d="M0 0 C1.8125 2.375 1.8125 2.375 3 5 C2.67 5.99 2.34 6.98 2 8 C-2.04283685 9.77317406 -5.95434282 11.02481328 -10.25 12 C-13.6532162 12.90752432 -15.44832146 13.66096134 -18 16 C-18.33 15.34 -18.66 14.68 -19 14 C-18.00390625 11.6171875 -18.00390625 11.6171875 -16.5625 8.875 C-15.85287109 7.50988281 -15.85287109 7.50988281 -15.12890625 6.1171875 C-14.75636719 5.41851562 -14.38382813 4.71984375 -14 4 C-14.99 3.34 -15.98 2.68 -17 2 C-14.91952703 1.4678559 -12.83547707 0.94968214 -10.75 0.4375 C-9.58984375 0.14746094 -8.4296875 -0.14257812 -7.234375 -0.44140625 C-4.2647434 -0.95427741 -2.72336875 -1.18872216 0 0 Z " fill="#DADADA" transform="translate(193,275)"/>
<path d="M0 0 C0 0.66 0 1.32 0 2 C1.08667969 2.16435547 1.08667969 2.16435547 2.1953125 2.33203125 C9.76433035 4.13468035 16.47487368 9.71509656 22 15 C22 15.66 22 16.32 22 17 C23.32 17.33 24.64 17.66 26 18 C26.495 21.465 26.495 21.465 27 25 C25.63875 23.7934375 25.63875 23.7934375 24.25 22.5625 C15.38446075 15.03481879 7.05400123 8.9002593 -4 5 C-4 5.66 -4 6.32 -4 7 C-3.401875 7.268125 -2.80375 7.53625 -2.1875 7.8125 C-0.02775192 8.98493467 1.35790256 10.19369282 3 12 C2.67 12.99 2.34 13.98 2 15 C1.46375 14.21625 0.9275 13.4325 0.375 12.625 C-2.30242842 9.66573701 -4.18433025 8.95391744 -8 8 C-5.73913043 0 -5.73913043 0 0 0 Z " fill="#7E7E7E" transform="translate(237,280)"/>
<path d="M0 0 C1.60488281 -0.02126953 1.60488281 -0.02126953 3.2421875 -0.04296875 C6.125 0.1875 6.125 0.1875 9.125 2.1875 C7.7350869 4.96732621 5.93841647 5.06213341 3.125 6.1875 C2.795 6.8475 2.465 7.5075 2.125 8.1875 C1.465 7.8575 0.805 7.5275 0.125 7.1875 C0.125 6.5275 0.125 5.8675 0.125 5.1875 C-2.82318931 5.66776848 -2.82318931 5.66776848 -5.875 7.1875 C-7.75970441 10.61241859 -7.75970441 10.61241859 -8.875 14.1875 C-9.205 14.8475 -9.535 15.5075 -9.875 16.1875 C-9.99875 16.991875 -10.1225 17.79625 -10.25 18.625 C-10.9731443 21.58989163 -11.55768432 22.2697215 -13.875 24.1875 C-14.3803125 24.61417969 -14.885625 25.04085937 -15.40625 25.48046875 C-16.88674636 26.72701875 -18.38005107 27.95831977 -19.875 29.1875 C-18.26723223 23.72108959 -15.70468001 19.64821459 -12.53125 14.96875 C-10.81699331 12.09009254 -9.83306685 9.38841457 -8.875 6.1875 C-6.68546471 0.3916713 -6.27252562 0.03760507 0 0 Z " fill="#70706F" transform="translate(216.875,207.8125)"/>
<path d="M0 0 C0.66 0 1.32 0 2 0 C3.33984375 1.765625 3.33984375 1.765625 4.9375 4.25 C10.93124887 13.05918415 18.39941861 21.64944846 27 28 C27.53753906 28.40992188 28.07507813 28.81984375 28.62890625 29.2421875 C33.47801768 32.50493069 38.27637563 32.84114074 44 32 C47.03465702 30.68772566 47.03465702 30.68772566 49 29 C48.6875 30.875 48.6875 30.875 48 33 C43.49738154 36.00174564 39.27640281 35.55961848 34 35 C26.6584706 33.01111294 21.32923643 27.11921726 16 22 C15.36964844 21.42121094 14.73929688 20.84242188 14.08984375 20.24609375 C8.50629558 14.9677965 1.27965593 7.80590115 0 0 Z " fill="#C3C3C3" transform="translate(228,371)"/>
<path d="M0 0 C7.89083386 3.33842971 12.75284233 9.80440229 17 17 C17.69921875 19.30859375 17.69921875 19.30859375 18 21 C16.68 21 15.36 21 14 21 C13.67 21.66 13.34 22.32 13 23 C12.39671875 22.05898438 11.7934375 21.11796875 11.171875 20.1484375 C10.36461086 18.89060733 9.55731764 17.63279583 8.75 16.375 C8.35425781 15.75753906 7.95851563 15.14007813 7.55078125 14.50390625 C7.15761719 13.89160156 6.76445312 13.27929688 6.359375 12.6484375 C5.96814453 12.03709961 5.57691406 11.42576172 5.17382812 10.79589844 C4.0534088 9.08171279 2.87938025 7.40292627 1.703125 5.7265625 C0 3 0 3 0 0 Z " fill="#3C3C3C" transform="translate(262,298)"/>
<path d="M0 0 C2.25 0.875 2.25 0.875 4 2 C-0.77258525 6.46956396 -5.61117998 7.52611589 -11.76171875 9.06640625 C-16.40240594 10.3066607 -19.3249244 11.7637394 -23 15 C-23.66 15 -24.32 15 -25 15 C-25 14.01 -25 13.02 -25 12 C-25.99 12 -26.98 12 -28 12 C-25.75482826 9.4180525 -24.27259758 8.77002296 -21 8 C-19.88431641 7.29037109 -19.88431641 7.29037109 -18.74609375 6.56640625 C-15.79308979 4.88197583 -13.2473239 4.16976192 -9.9375 3.4375 C-5.72507544 2.50579061 -5.72507544 2.50579061 -1.76953125 0.85546875 C-1.18558594 0.57316406 -0.60164063 0.29085938 0 0 Z " fill="#7D7D7D" transform="translate(197,281)"/>
<path d="M0 0 C-1.22010346 4.03572682 -2.45670118 7.60893491 -5 11 C-7.6875 12.3125 -7.6875 12.3125 -10 13 C-10 11.68 -10 10.36 -10 9 C-10.66 9 -11.32 9 -12 9 C-12.33 9.66 -12.66 10.32 -13 11 C-12.52517335 6.82152545 -11.95940617 4.07322948 -9 1 C-5.8035914 -0.06546953 -3.34252724 -0.07427838 0 0 Z " fill="#8F4246" transform="translate(209,214)"/>
<path d="M0 0 C0.12375 0.928125 0.12375 0.928125 0.25 1.875 C0.78131326 4.17469437 0.78131326 4.17469437 2.9375 4.9375 C5 6 5 6 6.25 8.375 C7 11 7 11 7 15 C6.443125 14.690625 5.88625 14.38125 5.3125 14.0625 C0.58792668 11.8917501 -2.93723343 11.94035118 -8 13 C-6.53333333 7.5 -6.53333333 7.5 -4 5.125 C-2 4 -2 4 0 4 C0 2.68 0 1.36 0 0 Z " fill="#9D9D9D" transform="translate(191,263)"/>
<path d="M0 0 C3.30133235 0.2676756 4.62503298 0.5603835 6.8125 3.125 C8.26421042 6.63966733 8.35562507 9.23037427 8 13 C7.34 13.66 6.68 14.32 6 15 C2.3260401 11.62392874 -0.05406554 8.60879214 -2 4 C-2 3.34 -2 2.68 -2 2 C-1.34 2 -0.68 2 0 2 C0 1.34 0 0.68 0 0 Z " fill="#754544" transform="translate(231,215)"/>
<path d="M0 0 C1.3303125 0.7115625 1.3303125 0.7115625 2.6875 1.4375 C8.15691666 3.8331949 14.11566337 3.74338983 20 4 C20 4.66 20 5.32 20 6 C14.08847185 9.98123324 14.08847185 9.98123324 9.375 10.0625 C5.33903617 8.79191879 3.60961383 7.30039396 1 4 C0.1875 1.6875 0.1875 1.6875 0 0 Z " fill="#636363" transform="translate(204,287)"/>
<path d="M0 0 C2.10854985 2.10854985 2.46174203 3.10873176 3.3125 5.875 C4.73989224 9.82722675 6.30814151 11.80246519 10 14 C14.31084429 15.79618512 17.71612457 14.41555393 21.9140625 12.90234375 C24.23632049 11.89777147 26.06639108 10.62423149 28 9 C28.66 9 29.32 9 30 9 C28.63880608 13.08358176 26.66807348 13.85452306 23 16 C18.87937097 17.71692876 15.45602923 18.55700365 11 18 C6.71467236 15.68592307 3.51425407 13.19042345 1 9 C0.40004903 6.00528678 0.13284416 3.04877355 0 0 Z " fill="#C3C3C3" transform="translate(150,390)"/>
<path d="M0 0 C0 1.32 0 2.64 0 4 C-3.13593666 6.42322378 -6.40486061 8.3407049 -10 10 C-10.33 9.34 -10.66 8.68 -11 8 C-11.928125 8.99 -11.928125 8.99 -12.875 10 C-15 12 -15 12 -17 12 C-15.50536684 8.3852622 -13.4391696 6.35564512 -10.5 3.8125 C-9.7059375 3.11769531 -8.911875 2.42289063 -8.09375 1.70703125 C-4.92794967 -0.87404103 -3.84814602 -1.15444381 0 0 Z " fill="#444444" transform="translate(280,182)"/>
<path d="M0 0 C0.99 1.32 1.98 2.64 3 4 C2.34 4 1.68 4 1 4 C0.61521484 5.09248047 0.61521484 5.09248047 0.22265625 6.20703125 C-3.86202316 15.53784843 -12.86131457 23.86131457 -20 31 C-20.99 30.67 -21.98 30.34 -23 30 C-22.40574219 29.45214844 -21.81148437 28.90429688 -21.19921875 28.33984375 C-15.91344443 23.28424312 -11.32422146 18.07627844 -7 12.1875 C-6.53166748 11.55384521 -6.06333496 10.92019043 -5.58081055 10.26733398 C-3.20140712 6.96078822 -1.30765435 3.9006735 0 0 Z " fill="#C8C8C8" transform="translate(204,367)"/>
<path d="M0 0 C0.66 0 1.32 0 2 0 C2 11.22 2 22.44 2 34 C-1.08871371 29.88171505 -1.37514172 29.33116049 -1.328125 24.5703125 C-1.32039062 23.00603516 -1.32039062 23.00603516 -1.3125 21.41015625 C-1.291875 20.32605469 -1.27125 19.24195313 -1.25 18.125 C-1.24484375 17.04863281 -1.2396875 15.97226562 -1.234375 14.86328125 C-1.18458305 9.81562246 -1.07058786 4.95578574 0 0 Z " fill="#CACACA" transform="translate(148,355)"/>
<path d="M0 0 C-1.0625 2.4375 -1.0625 2.4375 -3 5 C-6.6875 5.8125 -6.6875 5.8125 -10 6 C-10 6.66 -10 7.32 -10 8 C-12.31 8.33 -14.62 8.66 -17 9 C-16.43370306 5.71547776 -15.71347836 3.98988413 -13 2 C-8.54237757 0.40198441 -4.72434679 -0.23045594 0 0 Z " fill="#3E3E3E" transform="translate(186,271)"/>
<path d="M0 0 C0.495 0.99 0.495 0.99 1 2 C-10.05351606 6.9126738 -23.25007568 5.74072953 -35 4 C-35.33 3.01 -35.66 2.02 -36 1 C-35.0570105 1.11444458 -35.0570105 1.11444458 -34.0949707 1.23120117 C-16.85241015 3.35457078 -16.85241015 3.35457078 0 0 Z " fill="#101010" transform="translate(236,242)"/>
<path d="M0 0 C1.65 0 3.3 0 5 0 C4.67 0.66 4.34 1.32 4 2 C4.70866565 3.88084148 4.70866565 3.88084148 5.87109375 5.9140625 C6.28037109 6.67460937 6.68964844 7.43515625 7.11132812 8.21875 C7.54896484 9.0128125 7.98660156 9.806875 8.4375 10.625 C9.0881543 11.82769531 9.0881543 11.82769531 9.75195312 13.0546875 C10.82756988 15.04044151 11.91047213 17.0218546 13 19 C12.01 19.33 11.02 19.66 10 20 C9.401875 19.236875 8.80375 18.47375 8.1875 17.6875 C6.53040668 15.6516425 4.89702326 13.8021721 3 12 C3.66 12 4.32 12 5 12 C2.79033067 5.87377531 2.79033067 5.87377531 0 0 Z " fill="#C8C8C8" transform="translate(249,277)"/>
<path d="M0 0 C0.66 0 1.32 0 2 0 C2 0.66 2 1.32 2 2 C2.99 1.67 3.98 1.34 5 1 C5 5.72677548 3.99111281 6.55568828 1 10 C0.67 10.66 0.34 11.32 0 12 C-1.65 11.67 -3.3 11.34 -5 11 C-5 10.34 -5 9.68 -5 9 C-4.34 9 -3.68 9 -3 9 C-1.76078698 6.02588876 -0.69941596 3.14737182 0 0 Z " fill="#7C7C7C" transform="translate(199,244)"/>
<path d="M0 0 C0.33 0.66 0.66 1.32 1 2 C3.12576782 2.46651207 3.12576782 2.46651207 5.5625 2.625 C6.38878906 2.69976562 7.21507812 2.77453125 8.06640625 2.8515625 C8.70449219 2.90054687 9.34257812 2.94953125 10 3 C9.01 3.33 8.02 3.66 7 4 C8.32 5.65 9.64 7.3 11 9 C9.54096742 8.69078116 8.08279278 8.37751201 6.625 8.0625 C5.81289062 7.88847656 5.00078125 7.71445312 4.1640625 7.53515625 C2 7 2 7 0 6 C-0.66 7.65 -1.32 9.3 -2 11 C-3 8 -3 8 -2.125 6.0625 C-1.75375 5.381875 -1.3825 4.70125 -1 4 C-0.63215869 2.6757713 -0.28797019 1.34386088 0 0 Z " fill="#868686" transform="translate(241,268)"/>
<path d="M0 0 C1.22589844 0.49113281 1.22589844 0.49113281 2.4765625 0.9921875 C6.59263124 2.16951093 10.13044334 2.22478162 14.375 2.125 C15.47908203 2.11146484 15.47908203 2.11146484 16.60546875 2.09765625 C18.4037888 2.07430144 20.20193911 2.03843836 22 2 C21.67 2.99 21.34 3.98 21 5 C18.79229195 5.08165496 16.58369575 5.13948488 14.375 5.1875 C12.53035156 5.23970703 12.53035156 5.23970703 10.6484375 5.29296875 C6.70146571 4.97602776 4.34632659 4.07512445 1 2 C0.67 1.34 0.34 0.68 0 0 Z " fill="#232323" transform="translate(204,286)"/>
<path d="M0 0 C1 3 1 3 0.29296875 4.83203125 C-0.25423828 5.81236328 -0.25423828 5.81236328 -0.8125 6.8125 C-2.1817579 9.36750701 -3.19980102 11.59940306 -4.125 14.375 C-5 17 -5 17 -7 19 C-7.34950252 14.04003865 -6.3757212 11.05812735 -4.0625 6.6875 C-3.24458984 5.11548828 -3.24458984 5.11548828 -2.41015625 3.51171875 C-1 1 -1 1 0 0 Z " fill="#C3C3C3" transform="translate(160,322)"/>
<path d="M0 0 C2.475 0.495 2.475 0.495 5 1 C5 1.66 5 2.32 5 3 C4.34 3 3.68 3 3 3 C4.98 6.63 6.96 10.26 9 14 C9.66 14 10.32 14 11 14 C10.34 15.65 9.68 17.3 9 19 C8.34 19 7.68 19 7 19 C6.773125 18.05125 6.54625 17.1025 6.3125 16.125 C5.11182678 11.83938536 3.10040658 8.05654768 1.0234375 4.13671875 C0 2 0 2 0 0 Z " fill="#2B1514" transform="translate(226,214)"/>
<path d="M0 0 C0.66 0 1.32 0 2 0 C2 1.32 2 2.64 2 4 C3.32 3.34 4.64 2.68 6 2 C5.0008343 4.6900615 3.96219918 7.06048132 2.4375 9.5 C0.96737241 12.05674363 0.41424836 14.10026145 0 17 C-0.66 17 -1.32 17 -2 17 C-1.1220339 9.47457627 -1.1220339 9.47457627 -0.4375 6.8125 C0.11763599 4.5126509 0.06544772 2.35611782 0 0 Z " fill="#4F4041" transform="translate(197,223)"/>
<path d="M0 0 C2.0625 0.4375 2.0625 0.4375 4 1 C4 1.66 4 2.32 4 3 C5.32 3.33 6.64 3.66 8 4 C8.33 6.31 8.66 8.62 9 11 C1.51708428 4.84965831 1.51708428 4.84965831 -1 1 C-0.67 0.67 -0.34 0.34 0 0 Z " fill="#7A7A7A" transform="translate(255,294)"/>
<path d="M0 0 C-1.36119392 4.08358176 -3.33192652 4.85452306 -7 7 C-11.15819288 8.73258037 -14.5069356 9.21395545 -19 9 C-15.72653755 6.01118646 -12.25788998 5.04555206 -8.12109375 3.76171875 C-5.08698768 2.67212265 -3.1721665 0 0 0 Z " fill="#CBCBCB" transform="translate(180,399)"/>
<path d="M0 0 C3.2097856 2.13985706 3.73067548 3.15550684 4.66015625 6.78125 C5.33123846 11.16256836 5.14381492 15.58168592 5 20 C2.73155961 16.59733941 2.19810007 13.9907882 1.375 10 C0.98441406 8.14375 0.98441406 8.14375 0.5859375 6.25 C0 3 0 3 0 0 Z " fill="#C3C3C3" transform="translate(277,336)"/>
<path d="M0 0 C0.33 0.66 0.66 1.32 1 2 C1.66 2 2.32 2 3 2 C3.84511824 3.72343755 4.67563354 5.45404053 5.5 7.1875 C5.9640625 8.15042969 6.428125 9.11335938 6.90625 10.10546875 C7.99592921 12.98922693 8.22277524 14.95354861 8 18 C3.54680875 13.22872367 0 6.63054878 0 0 Z " fill="#C3C3C3" transform="translate(269,317)"/>
<path d="M0 0 C0.99 0.495 0.99 0.495 2 1 C1.01 1.495 1.01 1.495 0 2 C0 1.34 0 0.68 0 0 Z M-2 1 C-1.34 1.66 -0.68 2.32 0 3 C-0.375 5.125 -0.375 5.125 -1 7 C-0.401875 7.268125 0.19625 7.53625 0.8125 7.8125 C2.97224808 8.98493467 4.35790256 10.19369282 6 12 C5.67 12.99 5.34 13.98 5 15 C4.46375 14.21625 3.9275 13.4325 3.375 12.625 C0.69757158 9.66573701 -1.18433025 8.95391744 -5 8 C-3.125 2.125 -3.125 2.125 -2 1 Z " fill="#868686" transform="translate(234,280)"/>
<path d="M0 0 C0.33 0.66 0.66 1.32 1 2 C0.109375 4.49609375 0.109375 4.49609375 -1.25 7.4375 C-1.90742188 8.88962891 -1.90742188 8.88962891 -2.578125 10.37109375 C-3.85727778 12.73612074 -4.98827442 14.25453222 -7 16 C-6.06419557 9.44936898 -5.15057786 4.46383414 0 0 Z " fill="#BFBFBF" transform="translate(172,296)"/>
<path d="M0 0 C1.67542976 0.28604898 3.34385343 0.61781233 5 1 C5 1.99 5 2.98 5 4 C4.195625 4.28875 3.39125 4.5775 2.5625 4.875 C-0.1326468 5.73262568 -0.1326468 5.73262568 -1 8 C-1.66 7.34 -2.32 6.68 -3 6 C-1.125 1.125 -1.125 1.125 0 0 Z " fill="#68686A" transform="translate(220,208)"/>
<path d="M0 0 C7.26 0.66 14.52 1.32 22 2 C22 2.33 22 2.66 22 3 C14.78194245 3.7938642 8.19172157 4.07875823 1 3 C0.67 2.01 0.34 1.02 0 0 Z " fill="#232323" transform="translate(200,243)"/>
<path d="M0 0 C0.99 0 1.98 0 3 0 C2.67 3.3 2.34 6.6 2 10 C-1.375 5.5 -1.375 5.5 -2 2 C-1.34 2 -0.68 2 0 2 C0 1.34 0 0.68 0 0 Z " fill="#854347" transform="translate(231,215)"/>
<path d="M0 0 C0.33 1.65 0.66 3.3 1 5 C-1.31 5.33 -3.62 5.66 -6 6 C-5.6875 4.125 -5.6875 4.125 -5 2 C-2 0 -2 0 0 0 Z " fill="#2F2F2F" transform="translate(175,274)"/>
<path d="M0 0 C3.96 1.98 3.96 1.98 8 4 C7.34 5.32 6.68 6.64 6 8 C5.34 8 4.68 8 4 8 C0 2.58823529 0 2.58823529 0 0 Z " fill="#6F6F6F" transform="translate(204,287)"/>
<path d="M0 0 C1.32 0 2.64 0 4 0 C4.33 1.65 4.66 3.3 5 5 C2.04335481 6.4783226 -0.74229737 6.06032783 -4 6 C-3.525625 5.566875 -3.05125 5.13375 -2.5625 4.6875 C-0.76313043 2.97690387 -0.76313043 2.97690387 0 0 Z " fill="#737373" transform="translate(217,369)"/>
<path d="M0 0 C0.99 0 1.98 0 3 0 C1.66666667 2.66666667 0.33333333 5.33333333 -1 8 C-1.66 8 -2.32 8 -3 8 C-3.33 8.66 -3.66 9.32 -4 10 C-3.5289356 5.85463326 -3.0080208 3.0080208 0 0 Z " fill="#86716F" transform="translate(200,215)"/>
<path d="M0 0 C1 2 1 2 0.3125 4.9375 C-1.06192878 8.14450048 -2.06205603 9.23723362 -5 11 C-5.33 10.34 -5.66 9.68 -6 9 C-5.29296875 7.08984375 -5.29296875 7.08984375 -4.1875 4.9375 C-3.83042969 4.22464844 -3.47335938 3.51179688 -3.10546875 2.77734375 C-2 1 -2 1 0 0 Z " fill="#BDBDBD" transform="translate(180,280)"/>
<path d="M0 0 C0 0.99 0 1.98 0 3 C-0.99 3 -1.98 3 -3 3 C-3.33 3.99 -3.66 4.98 -4 6 C-3.34 6.66 -2.68 7.32 -2 8 C-3.98 8.33 -5.96 8.66 -8 9 C-6.53333333 3.5 -6.53333333 3.5 -4 1.125 C-2 0 -2 0 0 0 Z " fill="#AEAEAE" transform="translate(191,267)"/>
<path d="M0 0 C0.33 0 0.66 0 1 0 C1.125 3.375 1.125 3.375 1 7 C0.34 7.66 -0.32 8.32 -1 9 C-2.32 7.68 -3.64 6.36 -5 5 C-4.34 4.67 -3.68 4.34 -3 4 C-3 3.34 -3 2.68 -3 2 C-2.34 2 -1.68 2 -1 2 C-0.67 1.34 -0.34 0.68 0 0 Z " fill="#986B6D" transform="translate(238,221)"/>
<path d="M0 0 C1.98 0 3.96 0 6 0 C4.77472971 4.05281712 3.30119506 7.44360764 1 11 C0.67 10.34 0.34 9.68 0 9 C0.93446535 6.96855359 1.93224776 4.96466413 3 3 C2.01 2.67 1.02 2.34 0 2 C0 1.34 0 0.68 0 0 Z " fill="#3B2523" transform="translate(203,214)"/>
<path d="M0 0 C0.66 0.33 1.32 0.66 2 1 C0.71520959 2.50589388 -0.57804082 4.00457375 -1.875 5.5 C-2.95394531 6.75296875 -2.95394531 6.75296875 -4.0546875 8.03125 C-4.69664062 8.6809375 -5.33859375 9.330625 -6 10 C-6.66 10 -7.32 10 -8 10 C-6.34908222 5.70761377 -3.26245434 3.1206085 0 0 Z " fill="#646464" transform="translate(271,184)"/>
<path d="M0 0 C0.33 0.99 0.66 1.98 1 3 C-0.98 4.98 -2.96 6.96 -5 9 C-5.99 8.67 -6.98 8.34 -8 8 C-5.36 5.36 -2.72 2.72 0 0 Z " fill="#C0C0C0" transform="translate(189,389)"/>
<path d="M0 0 C2 2 2 2 2.25 5.5 C2 9 2 9 0 11 C-0.99 10.67 -1.98 10.34 -3 10 C-2.34 10 -1.68 10 -1 10 C-0.67 6.7 -0.34 3.4 0 0 Z " fill="#7D7D7C" transform="translate(238,234)"/>
<path d="M0 0 C1.32 0 2.64 0 4 0 C4.33 1.32 4.66 2.64 5 4 C2.69 4.33 0.38 4.66 -2 5 C-1.34 3.35 -0.68 1.7 0 0 Z " fill="#7D7D7D" transform="translate(188,269)"/>
<path d="M0 0 C5.75 0.75 5.75 0.75 8 3 C7.01 3.99 6.02 4.98 5 6 C3.2925002 4.71937515 1.62626404 3.38232443 0 2 C0 1.34 0 0.68 0 0 Z " fill="#D8D8D8" transform="translate(233,285)"/>
<path d="M0 0 C1.051875 0.433125 1.051875 0.433125 2.125 0.875 C5.05452503 2.02133588 8.00921653 3.02625654 11 4 C11 4.33 11 4.66 11 5 C4.64948454 5.36637589 4.64948454 5.36637589 1.5625 3.625 C0 2 0 2 0 0 Z " fill="#BCBCBC" transform="translate(155,402)"/>
<path d="M0 0 C2.1875 0.3125 2.1875 0.3125 4 1 C3.6875 2.9375 3.6875 2.9375 3 5 C2.01 5.33 1.02 5.66 0 6 C0 5.01 0 4.02 0 3 C-0.99 3 -1.98 3 -3 3 C-1.75 1.4375 -1.75 1.4375 0 0 Z " fill="#878787" transform="translate(172,290)"/>
<path d="M0 0 C1.45606519 4.52092968 0.27032841 7.51648796 -1 12 C-1.33 12 -1.66 12 -2 12 C-2.05422947 10.5629191 -2.09289723 9.12524538 -2.125 7.6875 C-2.14820313 6.88699219 -2.17140625 6.08648437 -2.1953125 5.26171875 C-2 3 -2 3 0 0 Z " fill="#BBBBBB" transform="translate(152,342)"/>
<path d="M0 0 C0.99 0.33 1.98 0.66 3 1 C3.33 3.31 3.66 5.62 4 8 C2.35 6.35 0.7 4.7 -1 3 C-0.67 2.01 -0.34 1.02 0 0 Z " fill="#8E8E8E" transform="translate(260,297)"/>
<path d="M0 0 C0.99 0 1.98 0 3 0 C2.67 0.99 2.34 1.98 2 3 C-1.63 3 -5.26 3 -9 3 C-9 2.67 -9 2.34 -9 2 C-6.94921875 1.77213542 -4.8984375 1.54427083 -2.84765625 1.31640625 C-0.98859771 1.18113386 -0.98859771 1.18113386 0 0 Z " fill="#161616" transform="translate(223,288)"/>
<path d="M0 0 C0.66 0.33 1.32 0.66 2 1 C1.01 3.97 0.02 6.94 -1 10 C-1.95988342 6.16046631 -1.99223115 4.67125527 -1 1 C-0.67 0.67 -0.34 0.34 0 0 Z " fill="#626161" transform="translate(210,210)"/>
<path d="M0 0 C0.99 0.33 1.98 0.66 3 1 C4.1875 4.0625 4.1875 4.0625 5 7 C3.0625 6.3125 3.0625 6.3125 1 5 C0.25 2.375 0.25 2.375 0 0 Z " fill="#757575" transform="translate(232,245)"/>

</g>
</svg>
